<?xml version="1.0" encoding="UTF-8" standalone="no"?>
<!-- Created with Inkscape (http://www.inkscape.org/) -->

<svg
   version="1.1"
   id="svg1"
   width="517.03998"
   height="153.28"
   viewBox="0 0 517.03998 153.28"
   xmlns:xlink="http://www.w3.org/1999/xlink"
   xmlns="http://www.w3.org/2000/svg"
   xmlns:svg="http://www.w3.org/2000/svg">
  <defs
     id="defs1">
    <linearGradient
       id="linearGradient10">
      <stop
         style="stop-color:#ffd900;stop-opacity:1;"
         offset="0"
         id="stop10" />
      <stop
         style="stop-color:#ff8c00;stop-opacity:1;"
         offset="1"
         id="stop11" />
    </linearGradient>
    <linearGradient
       xlink:href="#linearGradient10"
       id="linearGradient12"
       x1="413.32178"
       y1="-14.364746"
       x2="675.58099"
       y2="164.39447"
       gradientUnits="userSpaceOnUse"
       gradientTransform="translate(-394.95032)" />
  </defs>
  <path
     id="path2"
     style="fill:url(#linearGradient12)"
     d="m 61.59938,8.1071564 c -1.57712,3.3836666 -1.60044,28.1337946 -1.60044,28.1337946 0,0 0.89904,21.147117 2.96374,27.327589 1.11998,3.352541 10.70028,3.578442 10.70028,3.578442 0,0 9.42614,0.261623 10.8118,-3.897044 1.9994,-6.000626 2.45456,-27.620875 2.45456,-27.620875 0,0 -0.36528,-24.064991 -1.9544,-27.6174873 -1.79144,-4.0047803 -11.8501,-4.288384 -11.8501,-4.288384 0,0 -9.70867,0.486138 -11.52544,4.3839647 z m 90.30826,11.6314296 c -0.75138,0.756467 -0.44194,64.028992 -0.44194,64.028992 0,0 -0.20636,63.512242 0.40625,64.195312 0.57189,0.63767 15.82031,0.59375 15.82031,0.59375 0,0 15.17141,-0.15348 15.75586,-0.8125 0.59349,-0.66921 0.54495,-33.00586 0.54495,-33.00586 0,0 -0.15843,-32.090847 0.35935,-32.601561 0.51168,-0.504697 2.31836,1.285156 2.31836,1.285156 1.43015,1.274015 11.18848,10.040727 21.68555,19.480465 10.49707,9.43974 26.16866,23.53064 34.82422,31.31446 0,0 3.60661,3.8316 12.86133,10.58984 1.42984,1.04414 6.47265,3.5625 6.47265,3.5625 0,0 2.91374,0.19775 3.41211,-0.3125 0.51763,-0.52998 0.1875,-64.289062 0.1875,-64.289062 0,0 0.71242,-61.79803 -0.70711,-63.454467 -1.31615,-1.53581 -15.67375,-1.149049 -15.67375,-1.149049 0,0 -13.63842,-0.73159 -15.23181,0.972272 -1.38661,1.482742 -1.07095,32.676166 -1.07095,32.676166 0.0784,33.629157 0.077,33.64765 -0.5293,33.105469 -3.95889,-3.540444 -59.36701,-53.339819 -62.61133,-56.273438 -2.40791,-2.177307 -6.01792,-5.425498 -8.02343,-7.21875 0,0 -1.85788,-1.265575 -3.77907,-2.377836 -1.03164,-0.59726 -3.44359,-0.883883 -3.44359,-0.883883 0,0 -2.36207,-0.20481 -3.13616,0.574524 z M 50.85976,22.91314 C 49.73189,22.321064 45.1122,23.481398 41.83288,25.082031 35.05039,28.392552 28.14358,33.316103 22.6903,38.728516 12.998191,48.348025 7.229101,59.00673 4.633661,72.089844 c -0.65912,3.322292 -1.03433,4.443298 -1.02343,12.195312 0.0113,8.072103 0.3665,8.624722 1.15625,12.365235 3.72218,17.629439 14.006229,31.920789 30.537109,42.439449 3.34857,2.13071 9.6569,5.12635 13.75195,6.5293 4.79532,1.64286 11.16579,2.90928 17.48633,3.47656 2.80569,0.25181 13.60448,-0.12165 16.47656,-0.57031 7.71772,-1.20563 13.39409,-2.94648 19.76953,-6.06445 13.68563,-6.69309 25.10506,-17.70434 31.46484,-30.33594 4.99793,-9.92669 7.50958,-20.893277 6.71611,-32.700444 -0.34199,-5.089027 -0.38445,-7.291777 -1.49778,-11.730277 -3.68588,-14.694453 -13.3346,-26.84465 -27.10114,-36.661076 -4.99686,-3.563087 -7.10012,-5.401442 -11.68424,-7.018095 -1.0843,-0.382391 -4.73431,-1.5252 -5.43886,-0.863473 -0.70263,0.659921 -1.0546,-0.638704 -1.0546,16.563209 0,0 0.0715,14.192552 0.59662,17.303616 0.21672,1.283922 0.23779,1.867792 1.3721,2.821384 7.52698,6.327768 11.03049,13.325896 11.77734,22.107422 0.51077,6.005682 -1.45001,13.250896 -5.01562,18.537114 -3.405,5.04809 -10.66742,11.10085 -16.53907,13.7832 -6.84259,3.12589 -16.60043,3.71311 -24.5,1.47265 -9.63552,-2.73281 -19.78546,-11.63792 -23.41601,-20.542964 -2.92048,-7.163375 -2.85138,-15.797569 0.18359,-23.087891 1.9202,-4.612543 6.15368,-9.856526 11.06446,-13.703125 0,0 1.58046,-1.710335 1.91598,-2.836051 0.84776,-2.844355 0.39775,-16.257662 0.39775,-16.257662 0,-14.826904 0.0874,-15.739516 -1.16967,-16.399397 z" />
  <path
     id="path1"
     style="font-weight:500;font-size:175.8px;font-family:'LEMON MILK';-inkscape-font-specification:'LEMON MILK Medium';fill:#ffffff;stroke-width:14.65"
     d="m 410.28417,21.743372 c -1.30351,1.276936 0.0413,30.294839 0.009,59.751326 -0.0341,30.652372 -1.38412,61.794312 0.43682,63.413242 3.5974,3.1983 22.35107,2.80252 25.39304,-0.17678 3.06774,-3.00453 0.66838,-48.700359 3.00521,-50.41105 2.47544,-1.812166 40.61693,48.96941 43.51713,50.7646 3.81961,2.3643 26.36454,2.69004 29.1267,-0.0303 2.86689,-2.8235 -35.21601,-46.123663 -35.21601,-46.123663 -5.95056,-7.079786 16.98827,-5.579407 21.91571,-29.953475 6.01782,-29.767719 -19.50203,-49.001637 -47.52493,-49.001637 0,0 -38.06372,-0.777731 -40.6622,1.767767 z m 29.63373,24.522366 c 2.38657,-2.311515 17.77425,-1.06066 17.77425,-1.06066 10.14782,0 17.11327,6.714568 17.11327,15.816407 0,9.101837 -6.87235,16.395552 -17.11327,16.316406 0,0 -15.86908,0.437528 -18.30458,-2.024624 -2.57342,-2.601573 -2.01619,-26.581095 0.53033,-29.047529 z" />
  <path
     style="font-weight:500;font-size:175.8px;font-family:'LEMON MILK';-inkscape-font-specification:'LEMON MILK Medium';fill:#ffffff;stroke-width:14.65"
     d="m 337.55093,150.15246 c 31.93308,0 59.14524,-21.05295 59.14524,-49.9414 0,0 0.64995,-74.976053 -1.76777,-77.053999 -2.14675,-1.845057 -24.8703,-2.237964 -26.99163,-0.353552 -2.2714,2.017724 -2.82843,77.681951 -2.82843,77.681951 0,13.85063 -12.77346,22.46953 -27.29695,22.46953 -14.5235,0 -27.81786,-9.07008 -27.81786,-22.999856 0,0 -0.10336,-74.905078 -2.29809,-77.151625 -2.25606,-2.309276 -23.89217,-1.707399 -26.10774,0.353552 -2.21333,2.058863 -1.94455,77.053999 -1.94455,77.053999 0,28.88845 25.97472,49.9414 57.90778,49.9414 z"
     id="text1" />
</svg>
